# xmcd
#
# Track frame offsets: 
#        150
#        24224
#        42599
#        67799
#        83924
#        105075
#        127949
#        160800
#        183022
#        200947
#        228922
#        249522
#
# Disc length: 3654 seconds
#
# Revision: 0
# Processed by: cddbd v1.5.2PL0 Copyright (c) Steve Scherf et al.
# Submitted via: ExactAudioCopy v0.95a5
#
DISCID=8a0e440c
DTITLE=Acustic - Drzwi
DYEAR=2011
DGENRE=Blues
TTITLE0=Drzwi
TTITLE1=Stan wariata
TTITLE2=Przyjaciele
TTITLE3=Pies
TTITLE4=Ach to ty
TTITLE5=Nie karz mnie
TTITLE6=I nie mow mi
TTITLE7=Moje wychodzenie
TTITLE8=Droga Zizi
TTITLE9=Piotrus
TTITLE10=Zapomniane dni
TTITLE11=Swiatlo i cienie
EXTD=
EXTT0=
EXTT1=
EXTT2=
EXTT3=
EXTT4=
EXTT5=
EXTT6=
EXTT7=
EXTT8=
EXTT9=
EXTT10=
EXTT11=
PLAYORDER=
